<svg xmlns="http://www.w3.org/2000/svg" version="1.1" xmlns:xlink="http://www.w3.org/1999/xlink" xmlns:svgjs="http://svgjs.dev/svgjs" width="1440" height="560" preserveAspectRatio="none" viewBox="0 0 1440 560"><g mask="url(&quot;#SvgjsMask1000&quot;)" fill="none"><rect width="1440" height="560" x="0" y="0" fill="#0e2a47"></rect><path d="M763.77 363.79L763.77 367.52L780.46 367.52L780.46 363.79zM773.86 365.66 a6.6 6.6 0 1 0 13.2 0 a6.6 6.6 0 1 0 -13.2 0zM759.06 391.17L757.64 394.61L789.18 407.68L790.6 404.24zM783.29 405.96 a6.6 6.6 0 1 0 13.2 0 a6.6 6.6 0 1 0 -13.2 0zM744.24 414.66L741.6 417.3L751.92 427.62L754.56 424.98zM746.64 426.3 a6.6 6.6 0 1 0 13.2 0 a6.6 6.6 0 1 0 -13.2 0zM721.55 430.7L718.11 432.12L722.28 442.19L725.73 440.77zM717.4 441.48 a6.6 6.6 0 1 0 13.2 0 a6.6 6.6 0 1 0 -13.2 0zM694.46 436.83L690.73 436.83L690.73 464.2L694.46 464.2zM686 464.2 a6.6 6.6 0 1 0 13.2 0 a6.6 6.6 0 1 0 -13.2 0zM667.08 432.12L663.64 430.7L656.87 447.05L660.31 448.48zM651.99 447.76 a6.6 6.6 0 1 0 13.2 0 a6.6 6.6 0 1 0 -13.2 0zM643.59 417.3L640.95 414.66L629.66 425.96L632.29 428.6zM624.37 427.28 a6.6 6.6 0 1 0 13.2 0 a6.6 6.6 0 1 0 -13.2 0zM627.56 394.61L626.13 391.17L599.84 402.06L601.26 405.51zM593.95 403.78 a6.6 6.6 0 1 0 13.2 0 a6.6 6.6 0 1 0 -13.2 0zM621.43 367.52L621.43 363.79L599.29 363.79L599.29 367.52zM592.69 365.66 a6.6 6.6 0 1 0 13.2 0 a6.6 6.6 0 1 0 -13.2 0zM626.13 340.14L627.56 336.7L618.13 332.8L616.71 336.24zM610.82 334.52 a6.6 6.6 0 1 0 13.2 0 a6.6 6.6 0 1 0 -13.2 0zM640.95 316.65L643.59 314.02L624.41 294.84L621.78 297.47zM616.5 296.16 a6.6 6.6 0 1 0 13.2 0 a6.6 6.6 0 1 0 -13.2 0zM663.64 300.62L667.08 299.19L661.77 286.37L658.33 287.8zM653.45 287.08 a6.6 6.6 0 1 0 13.2 0 a6.6 6.6 0 1 0 -13.2 0zM690.73 294.49L694.46 294.49L694.46 282.6L690.73 282.6zM686 282.6 a6.6 6.6 0 1 0 13.2 0 a6.6 6.6 0 1 0 -13.2 0zM718.11 299.19L721.55 300.62L725.97 289.97L722.52 288.54zM717.64 289.25 a6.6 6.6 0 1 0 13.2 0 a6.6 6.6 0 1 0 -13.2 0zM741.6 314.02L744.24 316.65L768.91 291.98L766.27 289.34zM760.99 290.66 a6.6 6.6 0 1 0 13.2 0 a6.6 6.6 0 1 0 -13.2 0zM757.64 336.7L759.06 340.14L775.12 333.49L773.69 330.05zM767.81 331.77 a6.6 6.6 0 1 0 13.2 0 a6.6 6.6 0 1 0 -13.2 0zM621.41 365.66 a71.19 71.19 0 1 0 142.38 0 a71.19 71.19 0 1 0 -142.38 0z" fill="#488fdb"></path><path d="M761.53 383.47 A70.1936 70.1936 0 0 1 642.81 416.55M642.81 416.55 A142.3872 142.3872 0 0 0 761.53 383.47" fill="#2672c3" fill-rule="nonzero"></path><path d="M683.51 321.08 a14.24 14.24 0 1 0 28.48 0 a14.24 14.24 0 1 0 -28.48 0zM657.83 389.5 a14.24 14.24 0 1 0 28.48 0 a14.24 14.24 0 1 0 -28.48 0zM626.72 359.83 a14.24 14.24 0 1 0 28.48 0 a14.24 14.24 0 1 0 -28.48 0zM720.09 361.21 a14.24 14.24 0 1 0 28.48 0 a14.24 14.24 0 1 0 -28.48 0zM691.57 359.85 a7.12 7.12 0 1 0 14.24 0 a7.12 7.12 0 1 0 -14.24 0zM650.74 327.91 a7.83 7.83 0 1 0 15.66 0 a7.83 7.83 0 1 0 -15.66 0zM717.06 396.37 a7.83 7.83 0 1 0 15.66 0 a7.83 7.83 0 1 0 -15.66 0zM687.32 418.53 a9.97 9.97 0 1 0 19.94 0 a9.97 9.97 0 1 0 -19.94 0zM726.5 322.84 a3.56 3.56 0 1 0 7.12 0 a3.56 3.56 0 1 0 -7.12 0zM659.09 424.17 a5.7 5.7 0 1 0 11.4 0 a5.7 5.7 0 1 0 -11.4 0z" fill="#2672c3" fill-rule="nonzero"></path><path d="M1320.44 222.14L1320.44 225.87L1334.4 225.87L1334.4 222.14zM1327.8 224 a6.6 6.6 0 1 0 13.2 0 a6.6 6.6 0 1 0 -13.2 0zM1315.74 249.52L1314.31 252.96L1327.27 258.33L1328.7 254.89zM1321.39 256.61 a6.6 6.6 0 1 0 13.2 0 a6.6 6.6 0 1 0 -13.2 0zM1300.92 273.01L1298.28 275.65L1317.63 295L1320.27 292.36zM1312.35 293.68 a6.6 6.6 0 1 0 13.2 0 a6.6 6.6 0 1 0 -13.2 0zM1278.23 289.04L1274.79 290.47L1279.42 301.65L1282.86 300.22zM1274.54 300.93 a6.6 6.6 0 1 0 13.2 0 a6.6 6.6 0 1 0 -13.2 0zM1251.14 295.17L1247.41 295.17L1247.41 308.33L1251.14 308.33zM1242.67 308.33 a6.6 6.6 0 1 0 13.2 0 a6.6 6.6 0 1 0 -13.2 0zM1223.76 290.47L1220.32 289.04L1215.67 300.27L1219.11 301.69zM1210.79 300.98 a6.6 6.6 0 1 0 13.2 0 a6.6 6.6 0 1 0 -13.2 0zM1200.27 275.65L1197.63 273.01L1189.13 281.51L1191.77 284.15zM1183.85 282.83 a6.6 6.6 0 1 0 13.2 0 a6.6 6.6 0 1 0 -13.2 0zM1184.24 252.96L1182.81 249.52L1173.02 253.57L1174.44 257.02zM1167.13 255.3 a6.6 6.6 0 1 0 13.2 0 a6.6 6.6 0 1 0 -13.2 0zM1178.11 225.87L1178.11 222.14L1152.62 222.14L1152.62 225.87zM1146.02 224 a6.6 6.6 0 1 0 13.2 0 a6.6 6.6 0 1 0 -13.2 0zM1182.81 198.49L1184.24 195.05L1152.46 181.89L1151.04 185.33zM1145.15 183.61 a6.6 6.6 0 1 0 13.2 0 a6.6 6.6 0 1 0 -13.2 0zM1197.63 175L1200.27 172.36L1182.64 154.73L1180 157.37zM1174.72 156.05 a6.6 6.6 0 1 0 13.2 0 a6.6 6.6 0 1 0 -13.2 0zM1220.32 158.97L1223.76 157.54L1214.97 136.31L1211.52 137.73zM1206.64 137.02 a6.6 6.6 0 1 0 13.2 0 a6.6 6.6 0 1 0 -13.2 0zM1247.41 152.83L1251.14 152.83L1251.14 137.05L1247.41 137.05zM1242.67 137.05 a6.6 6.6 0 1 0 13.2 0 a6.6 6.6 0 1 0 -13.2 0zM1274.79 157.54L1278.23 158.97L1287.59 136.38L1284.14 134.95zM1279.27 135.66 a6.6 6.6 0 1 0 13.2 0 a6.6 6.6 0 1 0 -13.2 0zM1298.28 172.36L1300.92 175L1323.64 152.27L1321.01 149.64zM1315.72 150.95 a6.6 6.6 0 1 0 13.2 0 a6.6 6.6 0 1 0 -13.2 0zM1314.31 195.05L1315.74 198.49L1336.33 189.96L1334.91 186.52zM1329.02 188.24 a6.6 6.6 0 1 0 13.2 0 a6.6 6.6 0 1 0 -13.2 0zM1178.08 224 a71.19 71.19 0 1 0 142.38 0 a71.19 71.19 0 1 0 -142.38 0z" fill="#488fdb"></path><path d="M1253.1 152.91 A70.1936 70.1936 0 0 1 1309.01 262.74M1309.01 262.74 A142.3872 142.3872 0 0 0 1253.1 152.91" fill="#2672c3" fill-rule="nonzero"></path><path d="M1281.95 225.82 a14.24 14.24 0 1 0 28.48 0 a14.24 14.24 0 1 0 -28.48 0zM1205.2 275.84 a7.83 7.83 0 1 0 15.66 0 a7.83 7.83 0 1 0 -15.66 0zM1252.71 209.45 a9.26 9.26 0 1 0 18.52 0 a9.26 9.26 0 1 0 -18.52 0zM1201.14 230.46 a14.24 14.24 0 1 0 28.48 0 a14.24 14.24 0 1 0 -28.48 0zM1250.13 178.92 a7.12 7.12 0 1 0 14.24 0 a7.12 7.12 0 1 0 -14.24 0zM1193.11 182.61 a4.98 4.98 0 1 0 9.96 0 a4.98 4.98 0 1 0 -9.96 0zM1224.57 184.18 a5.7 5.7 0 1 0 11.4 0 a5.7 5.7 0 1 0 -11.4 0zM1237.98 251.07 a7.83 7.83 0 1 0 15.66 0 a7.83 7.83 0 1 0 -15.66 0zM1278.86 181.2 a5.7 5.7 0 1 0 11.4 0 a5.7 5.7 0 1 0 -11.4 0zM1179.85 233.02 a3.56 3.56 0 1 0 7.12 0 a3.56 3.56 0 1 0 -7.12 0z" fill="#2672c3" fill-rule="nonzero"></path><path d="M574.98 87.71L574.98 90.5L581.82 90.5L581.82 87.71zM576.87 89.11 a4.95 4.95 0 1 0 9.9 0 a4.95 4.95 0 1 0 -9.9 0zM571.45 108.24L570.38 110.82L588.94 118.51L590.01 115.93zM584.53 117.22 a4.95 4.95 0 1 0 9.9 0 a4.95 4.95 0 1 0 -9.9 0zM560.34 125.86L558.36 127.84L569.51 138.99L571.49 137.01zM565.55 138 a4.95 4.95 0 1 0 9.9 0 a4.95 4.95 0 1 0 -9.9 0zM543.32 137.89L540.74 138.96L546.88 153.78L549.46 152.71zM543.22 153.25 a4.95 4.95 0 1 0 9.9 0 a4.95 4.95 0 1 0 -9.9 0zM523 142.48L520.21 142.48L520.21 167.03L523 167.03zM516.65 167.03 a4.95 4.95 0 1 0 9.9 0 a4.95 4.95 0 1 0 -9.9 0zM502.47 138.96L499.89 137.89L491.22 158.8L493.81 159.87zM487.56 159.34 a4.95 4.95 0 1 0 9.9 0 a4.95 4.95 0 1 0 -9.9 0zM484.85 127.84L482.87 125.86L477.3 131.43L479.28 133.41zM473.34 132.42 a4.95 4.95 0 1 0 9.9 0 a4.95 4.95 0 1 0 -9.9 0zM472.83 110.82L471.76 108.24L452.65 116.16L453.72 118.74zM448.23 117.45 a4.95 4.95 0 1 0 9.9 0 a4.95 4.95 0 1 0 -9.9 0zM468.23 90.5L468.23 87.71L446.03 87.71L446.03 90.5zM441.08 89.11 a4.95 4.95 0 1 0 9.9 0 a4.95 4.95 0 1 0 -9.9 0zM471.76 69.97L472.83 67.39L449.63 57.78L448.56 60.36zM444.14 59.07 a4.95 4.95 0 1 0 9.9 0 a4.95 4.95 0 1 0 -9.9 0zM482.87 52.35L484.85 50.38L475.54 41.06L473.56 43.04zM469.6 42.05 a4.95 4.95 0 1 0 9.9 0 a4.95 4.95 0 1 0 -9.9 0zM499.89 40.33L502.47 39.26L496.84 25.66L494.25 26.73zM490.59 26.19 a4.95 4.95 0 1 0 9.9 0 a4.95 4.95 0 1 0 -9.9 0zM520.21 35.73L523 35.73L523 23.5L520.21 23.5zM516.65 23.5 a4.95 4.95 0 1 0 9.9 0 a4.95 4.95 0 1 0 -9.9 0zM540.74 39.26L543.32 40.33L546.47 32.73L543.89 31.66zM540.23 32.2 a4.95 4.95 0 1 0 9.9 0 a4.95 4.95 0 1 0 -9.9 0zM558.36 50.38L560.34 52.35L578.09 34.6L576.11 32.62zM572.15 33.61 a4.95 4.95 0 1 0 9.9 0 a4.95 4.95 0 1 0 -9.9 0zM570.38 67.39L571.45 69.97L582.93 65.22L581.86 62.64zM577.44 63.93 a4.95 4.95 0 1 0 9.9 0 a4.95 4.95 0 1 0 -9.9 0zM468.2 89.11 a53.4 53.4 0 1 0 106.8 0 a53.4 53.4 0 1 0 -106.8 0z" fill="#488fdb"></path><path d="M565.24 58.34 A52.3952 52.3952 0 0 1 526.55 142.27M526.55 142.27 A106.7904 106.7904 0 0 0 565.24 58.34" fill="#2672c3" fill-rule="nonzero"></path><path d="M517.13 78.51 a10.68 10.68 0 1 0 21.36 0 a10.68 10.68 0 1 0 -21.36 0zM551.7 77.15 a10.68 10.68 0 1 0 21.36 0 a10.68 10.68 0 1 0 -21.36 0zM487.22 117.63 a10.68 10.68 0 1 0 21.36 0 a10.68 10.68 0 1 0 -21.36 0zM510.9 40.46 a4.27 4.27 0 1 0 8.54 0 a4.27 4.27 0 1 0 -8.54 0zM487.58 67.63 a10.15 10.15 0 1 0 20.3 0 a10.15 10.15 0 1 0 -20.3 0zM518.67 111.07 a10.15 10.15 0 1 0 20.3 0 a10.15 10.15 0 1 0 -20.3 0zM474.33 77.5 a2.14 2.14 0 1 0 4.28 0 a2.14 2.14 0 1 0 -4.28 0zM513.45 138.75 a3.2 3.2 0 1 0 6.4 0 a3.2 3.2 0 1 0 -6.4 0zM549.52 103.55 a5.87 5.87 0 1 0 11.74 0 a5.87 5.87 0 1 0 -11.74 0zM532.47 52.63 a6.41 6.41 0 1 0 12.82 0 a6.41 6.41 0 1 0 -12.82 0z" fill="#2672c3" fill-rule="nonzero"></path><path d="M222.76 308.53L222.76 312.26L246 312.26L246 308.53zM239.4 310.4 a6.6 6.6 0 1 0 13.2 0 a6.6 6.6 0 1 0 -13.2 0zM218.06 335.91L216.63 339.35L242.51 350.07L243.93 346.63zM236.62 348.35 a6.6 6.6 0 1 0 13.2 0 a6.6 6.6 0 1 0 -13.2 0zM203.23 359.4L200.6 362.04L222.56 384L225.2 381.37zM217.28 382.68 a6.6 6.6 0 1 0 13.2 0 a6.6 6.6 0 1 0 -13.2 0zM180.55 375.44L177.1 376.86L184.2 394L187.65 392.57zM179.32 393.29 a6.6 6.6 0 1 0 13.2 0 a6.6 6.6 0 1 0 -13.2 0zM153.45 381.57L149.73 381.57L149.73 392.7L153.45 392.7zM144.99 392.7 a6.6 6.6 0 1 0 13.2 0 a6.6 6.6 0 1 0 -13.2 0zM126.08 376.86L122.63 375.44L111.74 401.73L115.19 403.16zM106.86 402.44 a6.6 6.6 0 1 0 13.2 0 a6.6 6.6 0 1 0 -13.2 0zM102.58 362.04L99.95 359.4L91.85 367.5L94.49 370.14zM86.57 368.82 a6.6 6.6 0 1 0 13.2 0 a6.6 6.6 0 1 0 -13.2 0zM86.55 339.35L85.13 335.91L70.08 342.14L71.5 345.59zM64.19 343.87 a6.6 6.6 0 1 0 13.2 0 a6.6 6.6 0 1 0 -13.2 0zM80.42 312.26L80.42 308.53L68.91 308.53L68.91 312.26zM62.31 310.4 a6.6 6.6 0 1 0 13.2 0 a6.6 6.6 0 1 0 -13.2 0zM85.13 284.88L86.55 281.44L61.58 271.1L60.15 274.54zM54.27 272.82 a6.6 6.6 0 1 0 13.2 0 a6.6 6.6 0 1 0 -13.2 0zM99.95 261.39L102.58 258.76L82.4 238.57L79.77 241.21zM74.49 239.89 a6.6 6.6 0 1 0 13.2 0 a6.6 6.6 0 1 0 -13.2 0zM122.63 245.36L126.08 243.93L114.42 215.8L110.98 217.23zM106.1 216.51 a6.6 6.6 0 1 0 13.2 0 a6.6 6.6 0 1 0 -13.2 0zM149.73 239.23L153.45 239.23L153.45 230.15L149.73 230.15zM144.99 230.15 a6.6 6.6 0 1 0 13.2 0 a6.6 6.6 0 1 0 -13.2 0zM177.1 243.93L180.55 245.36L187.49 228.61L184.04 227.18zM179.16 227.9 a6.6 6.6 0 1 0 13.2 0 a6.6 6.6 0 1 0 -13.2 0zM200.6 258.76L203.23 261.39L220.1 244.52L217.47 241.88zM212.19 243.2 a6.6 6.6 0 1 0 13.2 0 a6.6 6.6 0 1 0 -13.2 0zM216.63 281.44L218.06 284.88L248.36 272.33L246.93 268.89zM241.05 270.61 a6.6 6.6 0 1 0 13.2 0 a6.6 6.6 0 1 0 -13.2 0zM80.4 310.4 a71.19 71.19 0 1 0 142.38 0 a71.19 71.19 0 1 0 -142.38 0z" fill="#488fdb"></path><path d="M137.09 240.7 A70.1936 70.1936 0 0 1 219.25 332.55M219.25 332.55 A142.3872 142.3872 0 0 0 137.09 240.7" fill="#2672c3" fill-rule="nonzero"></path><path d="M122.01 310.91 a14.24 14.24 0 1 0 28.48 0 a14.24 14.24 0 1 0 -28.48 0zM177.1 322.94 a14.24 14.24 0 1 0 28.48 0 a14.24 14.24 0 1 0 -28.48 0zM88.66 279.97 a8.54 8.54 0 1 0 17.08 0 a8.54 8.54 0 1 0 -17.08 0zM179.52 281.82 a12.1 12.1 0 1 0 24.2 0 a12.1 12.1 0 1 0 -24.2 0zM153.75 254.2 a11.39 11.39 0 1 0 22.78 0 a11.39 11.39 0 1 0 -22.78 0zM146.66 343.72 a9.97 9.97 0 1 0 19.94 0 a9.97 9.97 0 1 0 -19.94 0zM109.6 256.25 a4.98 4.98 0 1 0 9.96 0 a4.98 4.98 0 1 0 -9.96 0zM86.26 336.33 a2.85 2.85 0 1 0 5.7 0 a2.85 2.85 0 1 0 -5.7 0zM121.67 340.38 a2.85 2.85 0 1 0 5.7 0 a2.85 2.85 0 1 0 -5.7 0zM124.96 363.45 a6.41 6.41 0 1 0 12.82 0 a6.41 6.41 0 1 0 -12.82 0z" fill="#2672c3" fill-rule="nonzero"></path><path d="M1070.46 451.29L1070.46 454.56L1093.98 454.56L1093.98 451.29zM1088.2 452.93 a5.78 5.78 0 1 0 11.56 0 a5.78 5.78 0 1 0 -11.56 0zM1066.34 475.25L1065.09 478.26L1078.11 483.65L1079.36 480.64zM1072.95 482.15 a5.78 5.78 0 1 0 11.56 0 a5.78 5.78 0 1 0 -11.56 0zM1053.37 495.81L1051.06 498.11L1071.98 519.03L1074.29 516.72zM1067.35 517.88 a5.78 5.78 0 1 0 11.56 0 a5.78 5.78 0 1 0 -11.56 0zM1033.52 509.83L1030.51 511.08L1039.34 532.41L1042.36 531.17zM1035.07 531.79 a5.78 5.78 0 1 0 11.56 0 a5.78 5.78 0 1 0 -11.56 0zM1009.81 515.2L1006.55 515.2L1006.55 535.56L1009.81 535.56zM1002.4 535.56 a5.78 5.78 0 1 0 11.56 0 a5.78 5.78 0 1 0 -11.56 0zM985.86 511.08L982.84 509.83L972.1 535.78L975.11 537.02zM967.83 536.4 a5.78 5.78 0 1 0 11.56 0 a5.78 5.78 0 1 0 -11.56 0zM965.3 498.11L963 495.81L943.13 515.68L945.43 517.98zM938.5 516.83 a5.78 5.78 0 1 0 11.56 0 a5.78 5.78 0 1 0 -11.56 0zM951.27 478.26L950.03 475.25L939.67 479.54L940.92 482.55zM934.51 481.05 a5.78 5.78 0 1 0 11.56 0 a5.78 5.78 0 1 0 -11.56 0zM945.91 454.56L945.91 451.29L917.16 451.29L917.16 454.56zM911.38 452.93 a5.78 5.78 0 1 0 11.56 0 a5.78 5.78 0 1 0 -11.56 0zM950.03 430.6L951.27 427.59L928.82 418.29L927.58 421.3zM922.42 419.8 a5.78 5.78 0 1 0 11.56 0 a5.78 5.78 0 1 0 -11.56 0zM963 410.04L965.3 407.74L948.49 390.93L946.19 393.24zM941.56 392.08 a5.78 5.78 0 1 0 11.56 0 a5.78 5.78 0 1 0 -11.56 0zM982.84 396.02L985.86 394.77L979.8 380.13L976.78 381.38zM972.51 380.76 a5.78 5.78 0 1 0 11.56 0 a5.78 5.78 0 1 0 -11.56 0zM1006.55 390.65L1009.81 390.65L1009.81 372.29L1006.55 372.29zM1002.4 372.29 a5.78 5.78 0 1 0 11.56 0 a5.78 5.78 0 1 0 -11.56 0zM1030.51 394.77L1033.52 396.02L1044.27 370.07L1041.25 368.83zM1036.98 369.45 a5.78 5.78 0 1 0 11.56 0 a5.78 5.78 0 1 0 -11.56 0zM1051.06 407.74L1053.37 410.04L1064.15 399.26L1061.85 396.95zM1057.22 398.11 a5.78 5.78 0 1 0 11.56 0 a5.78 5.78 0 1 0 -11.56 0zM1065.09 427.59L1066.34 430.6L1094.4 418.98L1093.15 415.97zM1087.99 417.47 a5.78 5.78 0 1 0 11.56 0 a5.78 5.78 0 1 0 -11.56 0zM945.89 452.93 a62.29 62.29 0 1 0 124.58 0 a62.29 62.29 0 1 0 -124.58 0z" fill="#488fdb"></path><path d="M1010.05 390.66 A61.294399999999996 61.294399999999996 0 0 1 1061.24 485.57M1061.24 485.57 A124.58879999999999 124.58879999999999 0 0 0 1010.05 390.66" fill="#2672c3" fill-rule="nonzero"></path><path d="M949.46 462.85 a12.46 12.46 0 1 0 24.92 0 a12.46 12.46 0 1 0 -24.92 0zM1046.59 493.35 a3.74 3.74 0 1 0 7.48 0 a3.74 3.74 0 1 0 -7.48 0zM1016.06 418.21 a12.46 12.46 0 1 0 24.92 0 a12.46 12.46 0 1 0 -24.92 0zM954.83 426.32 a11.84 11.84 0 1 0 23.68 0 a11.84 11.84 0 1 0 -23.68 0zM1020.88 478.58 a8.72 8.72 0 1 0 17.44 0 a8.72 8.72 0 1 0 -17.44 0zM1044.65 461.4 a5.61 5.61 0 1 0 11.22 0 a5.61 5.61 0 1 0 -11.22 0zM990.61 449.37 a12.46 12.46 0 1 0 24.92 0 a12.46 12.46 0 1 0 -24.92 0zM990.35 499.48 a12.46 12.46 0 1 0 24.92 0 a12.46 12.46 0 1 0 -24.92 0zM1051.96 438.61 a5.61 5.61 0 1 0 11.22 0 a5.61 5.61 0 1 0 -11.22 0zM987.41 399.35 a6.85 6.85 0 1 0 13.7 0 a6.85 6.85 0 1 0 -13.7 0z" fill="#2672c3" fill-rule="nonzero"></path><path d="M1022.67 172.2L1022.67 175.46L1032.95 175.46L1032.95 172.2zM1027.17 173.83 a5.78 5.78 0 1 0 11.56 0 a5.78 5.78 0 1 0 -11.56 0zM1018.55 196.16L1017.3 199.17L1043.54 210.04L1044.79 207.02zM1038.38 208.53 a5.78 5.78 0 1 0 11.56 0 a5.78 5.78 0 1 0 -11.56 0zM1005.58 216.71L1003.27 219.02L1020 235.74L1022.3 233.44zM1015.37 234.59 a5.78 5.78 0 1 0 11.56 0 a5.78 5.78 0 1 0 -11.56 0zM985.73 230.74L982.72 231.99L987.5 243.53L990.51 242.28zM983.22 242.9 a5.78 5.78 0 1 0 11.56 0 a5.78 5.78 0 1 0 -11.56 0zM962.02 236.1L958.76 236.1L958.76 252.47L962.02 252.47zM954.61 252.47 a5.78 5.78 0 1 0 11.56 0 a5.78 5.78 0 1 0 -11.56 0zM938.07 231.99L935.06 230.74L924.12 257.14L927.13 258.39zM919.84 257.77 a5.78 5.78 0 1 0 11.56 0 a5.78 5.78 0 1 0 -11.56 0zM917.51 219.02L915.21 216.71L895.61 236.31L897.92 238.61zM890.98 237.46 a5.78 5.78 0 1 0 11.56 0 a5.78 5.78 0 1 0 -11.56 0zM903.48 199.17L902.24 196.16L878.11 206.15L879.36 209.16zM872.96 207.65 a5.78 5.78 0 1 0 11.56 0 a5.78 5.78 0 1 0 -11.56 0zM898.12 175.46L898.12 172.2L888.99 172.2L888.99 175.46zM883.21 173.83 a5.78 5.78 0 1 0 11.56 0 a5.78 5.78 0 1 0 -11.56 0zM902.24 151.51L903.48 148.49L889.15 142.56L887.91 145.57zM882.75 144.07 a5.78 5.78 0 1 0 11.56 0 a5.78 5.78 0 1 0 -11.56 0zM915.21 130.95L917.51 128.64L902.99 114.13L900.69 116.43zM896.06 115.28 a5.78 5.78 0 1 0 11.56 0 a5.78 5.78 0 1 0 -11.56 0zM935.06 116.92L938.07 115.67L926.71 88.24L923.69 89.49zM919.42 88.87 a5.78 5.78 0 1 0 11.56 0 a5.78 5.78 0 1 0 -11.56 0zM958.76 111.56L962.02 111.56L962.02 92.41L958.76 92.41zM954.61 92.41 a5.78 5.78 0 1 0 11.56 0 a5.78 5.78 0 1 0 -11.56 0zM982.72 115.67L985.73 116.92L992.37 100.88L989.36 99.64zM985.09 100.26 a5.78 5.78 0 1 0 11.56 0 a5.78 5.78 0 1 0 -11.56 0zM1003.27 128.64L1005.58 130.95L1022.02 114.51L1019.71 112.2zM1015.09 113.36 a5.78 5.78 0 1 0 11.56 0 a5.78 5.78 0 1 0 -11.56 0zM1017.3 148.49L1018.55 151.51L1028.04 147.58L1026.79 144.56zM1021.63 146.07 a5.78 5.78 0 1 0 11.56 0 a5.78 5.78 0 1 0 -11.56 0zM898.1 173.83 a62.29 62.29 0 1 0 124.58 0 a62.29 62.29 0 1 0 -124.58 0z" fill="#488fdb"></path><path d="M910.64 136.35 A61.294399999999996 61.294399999999996 0 0 1 1017.68 149.36M1017.68 149.36 A124.58879999999999 124.58879999999999 0 0 0 910.64 136.35" fill="#2672c3" fill-rule="nonzero"></path><path d="M959.81 134.52 a12.46 12.46 0 1 0 24.92 0 a12.46 12.46 0 1 0 -24.92 0zM987.52 196.06 a12.46 12.46 0 1 0 24.92 0 a12.46 12.46 0 1 0 -24.92 0zM901.04 169.99 a12.46 12.46 0 1 0 24.92 0 a12.46 12.46 0 1 0 -24.92 0zM1005.62 166.3 a7.48 7.48 0 1 0 14.96 0 a7.48 7.48 0 1 0 -14.96 0zM926.6 145.06 a6.85 6.85 0 1 0 13.7 0 a6.85 6.85 0 1 0 -13.7 0zM983.63 158.24 a2.49 2.49 0 1 0 4.98 0 a2.49 2.49 0 1 0 -4.98 0zM949.33 181.34 a12.46 12.46 0 1 0 24.92 0 a12.46 12.46 0 1 0 -24.92 0zM937.62 118.02 a3.11 3.11 0 1 0 6.22 0 a3.11 3.11 0 1 0 -6.22 0zM937.62 218.43 a12.46 12.46 0 1 0 24.92 0 a12.46 12.46 0 1 0 -24.92 0zM996.84 141.21 a6.85 6.85 0 1 0 13.7 0 a6.85 6.85 0 1 0 -13.7 0z" fill="#2672c3" fill-rule="nonzero"></path><path d="M303.94 80.34L303.94 82.2L310.17 82.2L310.17 80.34zM306.87 81.27 a3.3 3.3 0 1 0 6.6 0 a3.3 3.3 0 1 0 -6.6 0zM301.59 94.02L300.88 95.75L313.41 100.94L314.13 99.22zM310.47 100.08 a3.3 3.3 0 1 0 6.6 0 a3.3 3.3 0 1 0 -6.6 0zM294.18 105.77L292.86 107.09L301.94 116.17L303.26 114.85zM299.3 115.51 a3.3 3.3 0 1 0 6.6 0 a3.3 3.3 0 1 0 -6.6 0zM282.83 113.79L281.11 114.5L284.33 122.26L286.05 121.55zM281.89 121.9 a3.3 3.3 0 1 0 6.6 0 a3.3 3.3 0 1 0 -6.6 0zM269.29 116.85L267.42 116.85L267.42 131.46L269.29 131.46zM265.06 131.46 a3.3 3.3 0 1 0 6.6 0 a3.3 3.3 0 1 0 -6.6 0zM255.6 114.5L253.88 113.79L250.12 122.85L251.85 123.56zM247.68 123.21 a3.3 3.3 0 1 0 6.6 0 a3.3 3.3 0 1 0 -6.6 0zM243.85 107.09L242.54 105.77L234.14 114.16L235.46 115.48zM231.5 114.82 a3.3 3.3 0 1 0 6.6 0 a3.3 3.3 0 1 0 -6.6 0zM235.84 95.75L235.12 94.02L222.82 99.12L223.53 100.84zM219.87 99.98 a3.3 3.3 0 1 0 6.6 0 a3.3 3.3 0 1 0 -6.6 0zM232.77 82.2L232.77 80.34L222.15 80.34L222.15 82.2zM218.85 81.27 a3.3 3.3 0 1 0 6.6 0 a3.3 3.3 0 1 0 -6.6 0zM235.12 68.51L235.84 66.79L229.72 64.26L229.01 65.98zM226.06 65.12 a3.3 3.3 0 1 0 6.6 0 a3.3 3.3 0 1 0 -6.6 0zM242.54 56.76L243.85 55.45L239.22 50.82L237.9 52.13zM235.26 51.47 a3.3 3.3 0 1 0 6.6 0 a3.3 3.3 0 1 0 -6.6 0zM253.88 48.75L255.6 48.04L249.37 32.99L247.64 33.7zM245.2 33.34 a3.3 3.3 0 1 0 6.6 0 a3.3 3.3 0 1 0 -6.6 0zM267.42 45.68L269.29 45.68L269.29 40.22L267.42 40.22zM265.06 40.22 a3.3 3.3 0 1 0 6.6 0 a3.3 3.3 0 1 0 -6.6 0zM281.11 48.04L282.83 48.75L286.78 39.21L285.06 38.5zM282.62 38.86 a3.3 3.3 0 1 0 6.6 0 a3.3 3.3 0 1 0 -6.6 0zM292.86 55.45L294.18 56.76L299.21 51.73L297.89 50.41zM295.25 51.07 a3.3 3.3 0 1 0 6.6 0 a3.3 3.3 0 1 0 -6.6 0zM300.88 66.79L301.59 68.51L315.79 62.63L315.08 60.91zM312.13 61.77 a3.3 3.3 0 1 0 6.6 0 a3.3 3.3 0 1 0 -6.6 0zM232.76 81.27 a35.6 35.6 0 1 0 71.2 0 a35.6 35.6 0 1 0 -71.2 0z" fill="#488fdb"></path><path d="M233.14 76.11 A34.5968 34.5968 0 0 1 290.37 53.3M290.37 53.3 A71.1936 71.1936 0 0 0 233.14 76.11" fill="#2672c3" fill-rule="nonzero"></path><path d="M235.06 69.65 a3.56 3.56 0 1 0 7.12 0 a3.56 3.56 0 1 0 -7.12 0zM248.74 86.25 a7.12 7.12 0 1 0 14.24 0 a7.12 7.12 0 1 0 -14.24 0zM244.5 55.95 a1.42 1.42 0 1 0 2.84 0 a1.42 1.42 0 1 0 -2.84 0zM291.16 67.43 a4.63 4.63 0 1 0 9.26 0 a4.63 4.63 0 1 0 -9.26 0zM264.6 107.83 a7.12 7.12 0 1 0 14.24 0 a7.12 7.12 0 1 0 -14.24 0zM286.16 106.12 a2.49 2.49 0 1 0 4.98 0 a2.49 2.49 0 1 0 -4.98 0zM266.95 65.12 a7.12 7.12 0 1 0 14.24 0 a7.12 7.12 0 1 0 -14.24 0zM269.89 49.44 a1.42 1.42 0 1 0 2.84 0 a1.42 1.42 0 1 0 -2.84 0zM281.66 83.47 a6.05 6.05 0 1 0 12.1 0 a6.05 6.05 0 1 0 -12.1 0zM243.2 102.91 a4.27 4.27 0 1 0 8.54 0 a4.27 4.27 0 1 0 -8.54 0z" fill="#2672c3" fill-rule="nonzero"></path><path d="M475.62 411.88L475.62 413.75L481.47 413.75L481.47 411.88zM478.17 412.82 a3.3 3.3 0 1 0 6.6 0 a3.3 3.3 0 1 0 -6.6 0zM473.27 425.57L472.55 427.29L478.4 429.72L479.11 427.99zM475.46 428.86 a3.3 3.3 0 1 0 6.6 0 a3.3 3.3 0 1 0 -6.6 0zM465.85 437.32L464.54 438.64L469.79 443.89L471.11 442.57zM467.15 443.23 a3.3 3.3 0 1 0 6.6 0 a3.3 3.3 0 1 0 -6.6 0zM454.51 445.34L452.79 446.05L458.99 461.02L460.71 460.3zM456.55 460.66 a3.3 3.3 0 1 0 6.6 0 a3.3 3.3 0 1 0 -6.6 0zM440.96 448.4L439.1 448.4L439.1 456.37L440.96 456.37zM436.73 456.37 a3.3 3.3 0 1 0 6.6 0 a3.3 3.3 0 1 0 -6.6 0zM427.28 446.05L425.55 445.34L422.47 452.78L424.19 453.49zM420.03 453.14 a3.3 3.3 0 1 0 6.6 0 a3.3 3.3 0 1 0 -6.6 0zM415.53 438.64L414.21 437.32L408.48 443.05L409.79 444.37zM405.84 443.71 a3.3 3.3 0 1 0 6.6 0 a3.3 3.3 0 1 0 -6.6 0zM407.51 427.29L406.8 425.57L391.77 431.8L392.48 433.52zM388.83 432.66 a3.3 3.3 0 1 0 6.6 0 a3.3 3.3 0 1 0 -6.6 0zM404.45 413.75L404.45 411.88L393.9 411.88L393.9 413.75zM390.6 412.82 a3.3 3.3 0 1 0 6.6 0 a3.3 3.3 0 1 0 -6.6 0zM406.8 400.06L407.51 398.34L399.85 395.16L399.13 396.88zM396.19 396.02 a3.3 3.3 0 1 0 6.6 0 a3.3 3.3 0 1 0 -6.6 0zM414.21 388.31L415.53 386.99L403.26 374.73L401.94 376.04zM399.3 375.39 a3.3 3.3 0 1 0 6.6 0 a3.3 3.3 0 1 0 -6.6 0zM425.55 380.3L427.28 379.58L424.69 373.34L422.97 374.05zM420.53 373.69 a3.3 3.3 0 1 0 6.6 0 a3.3 3.3 0 1 0 -6.6 0zM439.1 377.23L440.96 377.23L440.96 368.91L439.1 368.91zM436.73 368.91 a3.3 3.3 0 1 0 6.6 0 a3.3 3.3 0 1 0 -6.6 0zM452.79 379.58L454.51 380.3L456.65 375.13L454.93 374.42zM452.49 374.78 a3.3 3.3 0 1 0 6.6 0 a3.3 3.3 0 1 0 -6.6 0zM464.54 386.99L465.85 388.31L471.67 382.49L470.36 381.18zM467.71 381.83 a3.3 3.3 0 1 0 6.6 0 a3.3 3.3 0 1 0 -6.6 0zM472.55 398.34L473.27 400.06L487.31 394.24L486.59 392.52zM483.65 393.38 a3.3 3.3 0 1 0 6.6 0 a3.3 3.3 0 1 0 -6.6 0zM404.43 412.82 a35.6 35.6 0 1 0 71.2 0 a35.6 35.6 0 1 0 -71.2 0z" fill="#488fdb"></path><path d="M473.85 401.7 A34.5968 34.5968 0 0 1 432.82 447.67M432.82 447.67 A71.1936 71.1936 0 0 0 473.85 401.7" fill="#2672c3" fill-rule="nonzero"></path><path d="M433.75 419.88 a7.12 7.12 0 1 0 14.24 0 a7.12 7.12 0 1 0 -14.24 0zM417.02 406.44 a7.12 7.12 0 1 0 14.24 0 a7.12 7.12 0 1 0 -14.24 0zM454.16 396.98 a7.12 7.12 0 1 0 14.24 0 a7.12 7.12 0 1 0 -14.24 0zM453.54 427.53 a3.2 3.2 0 1 0 6.4 0 a3.2 3.2 0 1 0 -6.4 0zM449.59 439.01 a2.14 2.14 0 1 0 4.28 0 a2.14 2.14 0 1 0 -4.28 0zM416.46 424.22 a3.92 3.92 0 1 0 7.84 0 a3.92 3.92 0 1 0 -7.84 0zM429.58 391.63 a2.49 2.49 0 1 0 4.98 0 a2.49 2.49 0 1 0 -4.98 0zM461.25 414.59 a3.56 3.56 0 1 0 7.12 0 a3.56 3.56 0 1 0 -7.12 0zM432.87 442.66 a4.98 4.98 0 1 0 9.96 0 a4.98 4.98 0 1 0 -9.96 0zM437.91 381.92 a3.56 3.56 0 1 0 7.12 0 a3.56 3.56 0 1 0 -7.12 0z" fill="#2672c3" fill-rule="nonzero"></path><path d="M1389.11 476.9L1389.11 479.23L1402.6 479.23L1402.6 476.9zM1398.47 478.06 a4.13 4.13 0 1 0 8.26 0 a4.13 4.13 0 1 0 -8.26 0zM1386.17 494.01L1385.28 496.16L1401.09 502.71L1401.99 500.56zM1397.41 501.64 a4.13 4.13 0 1 0 8.26 0 a4.13 4.13 0 1 0 -8.26 0zM1376.91 508.69L1375.26 510.34L1380.66 515.74L1382.31 514.1zM1377.35 514.92 a4.13 4.13 0 1 0 8.26 0 a4.13 4.13 0 1 0 -8.26 0zM1362.73 518.71L1360.57 519.6L1368.63 539.06L1370.79 538.17zM1365.58 538.62 a4.13 4.13 0 1 0 8.26 0 a4.13 4.13 0 1 0 -8.26 0zM1345.79 522.55L1343.46 522.55L1343.46 542.42L1345.79 542.42zM1340.5 542.42 a4.13 4.13 0 1 0 8.26 0 a4.13 4.13 0 1 0 -8.26 0zM1328.68 519.6L1326.53 518.71L1319.49 535.71L1321.64 536.6zM1316.44 536.16 a4.13 4.13 0 1 0 8.26 0 a4.13 4.13 0 1 0 -8.26 0zM1314 510.34L1312.35 508.69L1299.91 521.13L1301.56 522.78zM1296.61 521.95 a4.13 4.13 0 1 0 8.26 0 a4.13 4.13 0 1 0 -8.26 0zM1303.98 496.16L1303.09 494.01L1295.24 497.26L1296.14 499.41zM1291.56 498.34 a4.13 4.13 0 1 0 8.26 0 a4.13 4.13 0 1 0 -8.26 0zM1300.15 479.23L1300.15 476.9L1291.43 476.9L1291.43 479.23zM1287.3 478.06 a4.13 4.13 0 1 0 8.26 0 a4.13 4.13 0 1 0 -8.26 0zM1303.09 462.12L1303.98 459.97L1295.37 456.4L1294.48 458.55zM1290.79 457.48 a4.13 4.13 0 1 0 8.26 0 a4.13 4.13 0 1 0 -8.26 0zM1312.35 447.44L1314 445.79L1309.29 441.08L1307.64 442.73zM1304.34 441.9 a4.13 4.13 0 1 0 8.26 0 a4.13 4.13 0 1 0 -8.26 0zM1326.53 437.42L1328.68 436.52L1326.23 430.6L1324.08 431.49zM1321.02 431.05 a4.13 4.13 0 1 0 8.26 0 a4.13 4.13 0 1 0 -8.26 0zM1343.46 433.58L1345.79 433.58L1345.79 416.65L1343.46 416.65zM1340.5 416.65 a4.13 4.13 0 1 0 8.26 0 a4.13 4.13 0 1 0 -8.26 0zM1360.57 436.52L1362.73 437.42L1368.85 422.62L1366.7 421.73zM1363.65 422.18 a4.13 4.13 0 1 0 8.26 0 a4.13 4.13 0 1 0 -8.26 0zM1375.26 445.79L1376.91 447.44L1388.35 435.99L1386.71 434.34zM1383.4 435.16 a4.13 4.13 0 1 0 8.26 0 a4.13 4.13 0 1 0 -8.26 0zM1385.28 459.97L1386.17 462.12L1393.71 459L1392.82 456.84zM1389.13 457.92 a4.13 4.13 0 1 0 8.26 0 a4.13 4.13 0 1 0 -8.26 0zM1300.13 478.06 a44.5 44.5 0 1 0 89 0 a44.5 44.5 0 1 0 -89 0z" fill="#488fdb"></path><path d="M1382.63 501.21 A43.496 43.496 0 0 1 1305.63 499.48M1305.63 499.48 A88.992 88.992 0 0 0 1382.63 501.21" fill="#2672c3" fill-rule="nonzero"></path><path d="M1383.49 464.99 a1.78 1.78 0 1 0 3.56 0 a1.78 1.78 0 1 0 -3.56 0zM1364.15 503.72 a7.12 7.12 0 1 0 14.24 0 a7.12 7.12 0 1 0 -14.24 0zM1304.24 460.29 a3.11 3.11 0 1 0 6.22 0 a3.11 3.11 0 1 0 -6.22 0zM1313.91 506.74 a7.56 7.56 0 1 0 15.12 0 a7.56 7.56 0 1 0 -15.12 0zM1344.21 491.41 a7.12 7.12 0 1 0 14.24 0 a7.12 7.12 0 1 0 -14.24 0zM1366.21 483.63 a4 4 0 1 0 8 0 a4 4 0 1 0 -8 0zM1316.3 469.51 a2.67 2.67 0 1 0 5.34 0 a2.67 2.67 0 1 0 -5.34 0zM1325.25 481.03 a3.56 3.56 0 1 0 7.12 0 a3.56 3.56 0 1 0 -7.12 0zM1321.73 452.74 a8.01 8.01 0 1 0 16.02 0 a8.01 8.01 0 1 0 -16.02 0zM1340.7 515.28 a7.12 7.12 0 1 0 14.24 0 a7.12 7.12 0 1 0 -14.24 0z" fill="#2672c3" fill-rule="nonzero"></path></g><defs><mask id="SvgjsMask1000"><rect width="1440" height="560" fill="#ffffff"></rect></mask></defs></svg>